<svg xmlns="http://www.w3.org/2000/svg" viewBox="0 0 499 100"><defs><linearGradient id="wg" x1="0" y1="0" x2="0" y2="100" gradientUnits="userSpaceOnUse"><stop offset="0%" stop-color="#ffd772"/><stop offset="100%" stop-color="#c9860c"/></linearGradient></defs><path d="M0 0 H24 V76 H72 V100 H0 Z" transform="translate(0 0)" fill="url(#wg)" fill-rule="nonzero"/><path d="M0 0 H72 V23 H24 V38 H62 V60 H24 V77 H72 V100 H0 Z" transform="translate(88 0)" fill="url(#wg)" fill-rule="nonzero"/><path d="M0 0 H24 V100 H0 Z" transform="translate(176 0)" fill="url(#wg)" fill-rule="nonzero"/><path d="M0 0 H24 V40 L55 0 H85 L46 50 L87 100 H57 L24 58 V100 H0 Z" transform="translate(216 0)" fill="url(#wg)" fill-rule="nonzero"/><path d="M31 0 H57 L88 100 H62 L56 79 H32 L26 100 H0 Z M44 22 L37 60 H51 Z" transform="translate(319 0)" fill="url(#wg)" fill-rule="evenodd"/><path d="M0 0 H24 V38 H52 V0 H76 V100 H52 V61 H24 V100 H0 Z" transform="translate(423 0)" fill="url(#wg)" fill-rule="nonzero"/></svg>
